HIERARCHY
ROOT joint_Root
{
	OFFSET 0.0 0.0 0.0
	CHANNELS 6 Xposition Yposition Zposition Zrotation Xrotation Yrotation 
	JOINT Hips
	{
		OFFSET -17.1583 93.1646 452.98
		CHANNELS 6 Xposition Yposition Zposition Zrotation Xrotation Yrotation 
		JOINT Spine
		{
			OFFSET 15.7357 0.0 0.0
			CHANNELS 6 Xposition Yposition Zposition Zrotation Xrotation Yrotation 
			JOINT Chest
			{
				OFFSET 8.98455 -0.406207 0.0
				CHANNELS 6 Xposition Yposition Zposition Zrotation Xrotation Yrotation 
				JOINT Neck
				{
					OFFSET 16.3773 0.0 0.0
					CHANNELS 6 Xposition Yposition Zposition Zrotation Xrotation Yrotation 
					JOINT Head
					{
						OFFSET 6.45672 0.0 0.0
						CHANNELS 6 Xposition Yposition Zposition Zrotation Xrotation Yrotation 
						End Site
						{
							OFFSET 0.0 0.0 0.0
						}
					}
				}
				JOINT Shoulder_L
				{
					OFFSET 12.9942 -0.242716 4.98039
					CHANNELS 6 Xposition Yposition Zposition Zrotation Xrotation Yrotation 
					JOINT UpperArm_L
					{
						OFFSET 5.34809 0.0 0.0
						CHANNELS 6 Xposition Yposition Zposition Zrotation Xrotation Yrotation 
						JOINT LowerArm_L
						{
							OFFSET 24.3286 1.87007e-05 0.0
							CHANNELS 6 Xposition Yposition Zposition Zrotation Xrotation Yrotation 
							JOINT Hand_L
							{
								OFFSET 22.2916 0.0 0.0
								CHANNELS 6 Xposition Yposition Zposition Zrotation Xrotation Yrotation 
								End Site
								{
									OFFSET 0.0 0.0 0.0
								}
							}
						}
					}
				}
				JOINT Shoulder_R
				{
					OFFSET 12.9945 -0.242716 -4.98039
					CHANNELS 6 Xposition Yposition Zposition Zrotation Xrotation Yrotation 
					JOINT UpperArm_R
					{
						OFFSET -5.34813 0.0 0.0
						CHANNELS 6 Xposition Yposition Zposition Zrotation Xrotation Yrotation 
						JOINT LowerArm_R
						{
							OFFSET -24.3289 0.000322201 0.0
							CHANNELS 6 Xposition Yposition Zposition Zrotation Xrotation Yrotation 
							JOINT Hand_R
							{
								OFFSET -22.2915 -0.000108084 0.0
								CHANNELS 6 Xposition Yposition Zposition Zrotation Xrotation Yrotation 
								End Site
								{
									OFFSET 0.0 0.0 0.0
								}
							}
						}
					}
				}
			}
		}
		JOINT UpperLeg_L
		{
			OFFSET -2.19248 -6.46944 0.0
			CHANNELS 6 Xposition Yposition Zposition Zrotation Xrotation Yrotation 
			JOINT LowerLeg_L
			{
				OFFSET 39.0811 0.0 -1.23785e-05
				CHANNELS 6 Xposition Yposition Zposition Zrotation Xrotation Yrotation 
				JOINT Foot_L
				{
					OFFSET 40.9854 0.0 -1.26872e-05
					CHANNELS 6 Xposition Yposition Zposition Zrotation Xrotation Yrotation 
					JOINT Toes_L
					{
						OFFSET 11.7543 0.0 0.0
						CHANNELS 6 Xposition Yposition Zposition Zrotation Xrotation Yrotation 
						End Site
						{
							OFFSET 0.0 0.0 0.0
						}
					}
				}
			}
		}
		JOINT UpperLeg_R
		{
			OFFSET -2.19251 6.46944 0.0
			CHANNELS 6 Xposition Yposition Zposition Zrotation Xrotation Yrotation 
			JOINT LowerLeg_R
			{
				OFFSET -39.0811 -0.00228153 -0.0401928
				CHANNELS 6 Xposition Yposition Zposition Zrotation Xrotation Yrotation 
				JOINT Foot_R
				{
					OFFSET -40.9854 0.0 0.0
					CHANNELS 6 Xposition Yposition Zposition Zrotation Xrotation Yrotation 
					JOINT Toes_R
					{
						OFFSET -11.7543 0.0 0.0
						CHANNELS 6 Xposition Yposition Zposition Zrotation Xrotation Yrotation 
						End Site
						{
							OFFSET 0.0 0.0 0.0
						}
					}
				}
			}
		}
	}
}
MOTION
Frames:	9
Frame Time:	0.0333333
0.000000 0.000000 0.000000 0.000000 0.000000 -0.000000 192.241000 94.399500 -155.382000 91.139500 2.551870 0.116838 15.735700 0.000005 -0.000001 123.998000 85.636100 -123.495000 8.984550 -0.406207 -0.000000 -0.550309 4.842630 1.029610 16.377300 -0.000001 -0.000001 3.793470 0.106323 -0.520636 6.456720 -0.000001 -0.000000 -8.019170 -3.339180 -2.599990 12.994200 -0.242716 4.980390 -93.621200 7.859330 -65.164500 5.348090 -0.000007 -0.000001 -43.537200 -15.250000 16.426400 24.328600 0.000019 0.000005 4.385600 24.629500 -10.427100 22.291600 -0.000001 0.000005 -0.857471 5.004170 7.221360 12.994500 -0.242716 -4.980390 89.292900 1.975900 -70.306700 -5.348130 -0.000001 -0.000004 -60.754000 27.118400 -26.174200 -24.328900 0.000322 -0.000009 -1.178540 -1.754130 -33.870300 -22.291500 -0.000108 -0.000004 1.576620 5.372490 -2.064150 -2.192480 -6.469440 -0.000000 -176.778000 -2.174000 -23.613400 39.081100 -0.000007 -0.000012 0.105992 -0.076914 54.031800 40.985400 -0.000006 -0.000013 -10.482800 11.825700 -47.491700 11.754300 -0.000000 0.000003 0.002125 0.051828 -14.474500 -2.192510 6.469440 -0.000001 177.158000 14.731500 -176.968000 -39.081100 -0.002282 -0.040193 -0.022936 0.068519 20.966000 -40.985400 0.000008 0.000006 -7.550020 7.218570 -64.165300 -11.754300 -0.000006 -0.000006 0.002057 0.048923 -14.588700
0.000000 0.000000 0.000000 0.000000 0.000000 -0.000000 192.577000 94.932800 -152.837000 91.565100 1.000810 -1.057210 15.735700 0.000005 -0.000001 129.321000 85.641700 -128.978000 8.984550 -0.406207 -0.000000 -1.039280 5.495920 0.734761 16.377300 -0.000001 -0.000001 3.440420 0.655525 -1.099990 6.456720 -0.000001 -0.000000 -7.822680 -3.140110 -2.802100 12.994200 -0.242716 4.980390 -93.424300 7.283280 -64.733400 5.348090 -0.000007 -0.000001 -40.232800 -19.154100 18.649900 24.328600 0.000019 0.000005 3.772880 23.301800 -9.463850 22.291600 -0.000001 0.000005 3.976970 4.945930 8.424510 12.994500 -0.242716 -4.980390 89.428500 1.635390 -70.735900 -5.348130 -0.000001 -0.000004 -59.926500 26.493600 -29.152800 -24.328900 0.000322 -0.000009 -1.754880 -2.362930 -36.595800 -22.291500 -0.000108 -0.000004 1.824640 5.381850 -2.356360 -2.192480 -6.469440 -0.000000 -177.886000 -3.020580 -24.533800 39.081100 -0.000007 -0.000012 0.078032 -0.082300 43.474000 40.985400 -0.000006 -0.000013 -11.337500 12.073400 -49.550400 11.754300 -0.000000 0.000003 0.002246 0.057680 -14.237200 -2.192510 6.469440 -0.000001 175.878000 15.890700 -175.350000 -39.081100 -0.002282 -0.040193 -0.006253 0.029698 17.875000 -40.985400 0.000008 0.000006 -7.398040 9.439570 -60.605000 -11.754300 -0.000006 -0.000006 -0.000503 -0.008080 -16.902000
0.000000 0.000000 0.000000 0.000000 0.000000 -0.000000 192.782000 94.865700 -150.187000 91.282400 -0.010006 -1.647650 15.735700 0.000005 -0.000001 131.155000 85.512200 -130.724000 8.984550 -0.406207 -0.000000 -1.030180 5.872500 0.913729 16.377300 -0.000001 -0.000001 2.798590 1.007470 -1.579130 6.456720 -0.000001 -0.000000 -8.104200 -2.840570 -3.118640 12.994200 -0.242716 4.980390 -93.242400 6.934890 -64.864600 5.348090 -0.000007 -0.000001 -37.862600 -21.656400 20.143800 24.328600 0.000019 0.000005 2.850760 21.463200 -7.748550 22.291600 -0.000001 0.000005 9.539230 4.824440 10.828100 12.994500 -0.242716 -4.980390 89.483000 1.498710 -70.965300 -5.348130 -0.000001 -0.000004 -59.618800 25.337900 -31.423200 -24.328900 0.000322 -0.000009 -1.994670 -2.435740 -39.319200 -22.291500 -0.000108 -0.000004 2.443870 5.384080 -2.427160 -2.192480 -6.469440 -0.000000 -178.299000 -4.329340 -24.026400 39.081100 -0.000007 -0.000012 0.052040 -0.085407 31.354400 40.985400 -0.000006 -0.000013 -11.471100 10.514300 -51.005600 11.754300 -0.000000 0.000003 0.002286 0.059973 -14.144200 -2.192510 6.469440 -0.000001 175.471000 16.233600 -173.615000 -39.081100 -0.002282 -0.040193 -0.001740 0.017409 16.231600 -40.985400 0.000008 0.000006 -7.179260 10.497200 -58.894900 -11.754300 -0.000006 -0.000006 -0.005140 -0.062813 -19.128900
0.000000 0.000000 0.000000 0.000000 0.000000 -0.000000 192.941000 94.145000 -147.284000 90.559700 -0.792750 -1.957170 15.735700 0.000005 -0.000001 131.108000 85.348900 -130.439000 8.984550 -0.406207 -0.000000 -0.791542 6.064750 1.380410 16.377300 -0.000001 -0.000001 1.907680 1.339490 -1.923880 6.456720 -0.000001 -0.000000 -8.587040 -2.400370 -3.340680 12.994200 -0.242716 4.980390 -93.206600 6.966750 -65.208200 5.348090 -0.000007 -0.000001 -36.236800 -23.195700 21.057100 24.328600 0.000019 0.000005 2.076630 20.465100 -5.920340 22.291600 -0.000001 0.000005 14.262000 4.681820 13.466600 12.994500 -0.242716 -4.980390 89.445600 1.632790 -71.243400 -5.348130 -0.000001 -0.000004 -59.904800 23.805400 -32.589000 -24.328900 0.000322 -0.000009 -2.336550 -2.584350 -42.125900 -22.291500 -0.000108 -0.000004 3.073860 5.392020 -2.678870 -2.192480 -6.469440 -0.000000 -178.501000 -6.168190 -23.307800 39.081100 -0.000007 -0.000012 0.025910 -0.070155 20.270900 40.985400 -0.000006 -0.000013 -10.550000 9.666270 -53.210100 11.754300 -0.000000 0.000003 0.002354 0.064412 -13.964300 -2.192510 6.469440 -0.000001 175.624000 15.548000 -172.274000 -39.081100 -0.002282 -0.040193 -0.012057 0.051570 16.610900 -40.985400 0.000008 0.000006 -6.862480 10.732700 -59.339100 -11.754300 -0.000006 -0.000006 -0.010064 -0.104118 -20.815300
0.000000 0.000000 0.000000 0.000000 0.000000 -0.000000 193.169000 93.018900 -144.084000 89.724900 -1.464090 -2.245610 15.735700 0.000005 -0.000001 130.900000 85.237500 -129.968000 8.984550 -0.406207 -0.000000 -0.614583 6.166970 1.896920 16.377300 -0.000001 -0.000001 1.140500 1.632770 -1.974220 6.456720 -0.000001 -0.000000 -9.287390 -1.796310 -3.365950 12.994200 -0.242716 4.980390 -93.339100 7.389020 -65.597400 5.348090 -0.000007 -0.000001 -35.476600 -23.766000 21.485700 24.328600 0.000019 0.000005 1.605630 19.646200 -4.765640 22.291600 -0.000001 0.000005 17.334500 4.535040 16.009300 12.994500 -0.242716 -4.980390 89.380000 1.857420 -71.537700 -5.348130 -0.000001 -0.000004 -60.877700 22.236200 -32.216500 -24.328900 0.000322 -0.000009 -2.892750 -2.890070 -45.048100 -22.291500 -0.000108 -0.000004 3.902810 5.405880 -3.127280 -2.192480 -6.469440 -0.000000 -178.658000 -7.863890 -23.085200 39.081100 -0.000007 -0.000012 0.013417 -0.061854 12.239100 40.985400 -0.000006 -0.000013 -10.452400 10.691500 -55.547800 11.754300 -0.000000 0.000003 0.002338 0.063292 -14.009700 -2.192510 6.469440 -0.000001 175.843000 14.312300 -171.233000 -39.081100 -0.002282 -0.040193 -0.028244 0.095858 18.227900 -40.985400 0.000008 0.000006 -7.111920 10.737600 -60.709600 -11.754300 -0.000006 -0.000006 -0.017853 -0.155089 -22.905700
0.000000 0.000000 0.000000 0.000000 0.000000 -0.000000 193.544000 91.758800 -140.504000 88.934700 -1.970890 -2.510970 15.735700 0.000005 -0.000001 130.454000 85.151500 -129.292000 8.984550 -0.406207 -0.000000 -0.447267 6.207100 2.349540 16.377300 -0.000001 -0.000001 0.431204 1.899920 -1.752580 6.456720 -0.000001 -0.000000 -10.216900 -1.073460 -2.964420 12.994200 -0.242716 4.980390 -93.611100 8.157540 -66.022200 5.348090 -0.000007 -0.000001 -35.769200 -24.085700 21.467800 24.328600 0.000019 0.000005 1.527730 18.987900 -4.685840 22.291600 -0.000001 0.000005 18.582600 4.467670 17.131300 12.994500 -0.242716 -4.980390 89.268900 2.212370 -71.708200 -5.348130 -0.000001 -0.000004 -62.110300 20.848400 -30.477000 -24.328900 0.000322 -0.000009 -3.564530 -3.267350 -47.531200 -22.291500 -0.000108 -0.000004 4.936980 5.424780 -3.756800 -2.192480 -6.469440 -0.000000 -178.783000 -8.930450 -23.672500 39.081100 -0.000007 -0.000012 0.009284 -0.057169 9.224450 40.985400 -0.000006 -0.000013 -11.229700 11.990300 -57.154400 11.754300 -0.000000 0.000003 0.002341 0.063448 -14.003400 -2.192510 6.469440 -0.000001 176.013000 12.756500 -170.481000 -39.081100 -0.002282 -0.040193 -0.042156 0.119860 20.777200 -40.985400 0.000008 0.000006 -7.435130 10.491600 -61.966900 -11.754300 -0.000006 -0.000006 -0.031413 -0.223867 -25.747900
0.000000 0.000000 0.000000 0.000000 0.000000 -0.000000 194.179000 90.739000 -136.677000 89.212000 -1.862690 -3.698410 15.735700 0.000005 -0.000001 129.161000 85.423000 -128.151000 8.984550 -0.406207 -0.000000 -0.716806 5.704830 2.055290 16.377300 -0.000001 -0.000001 -0.154313 2.240160 -1.179200 6.456720 -0.000001 -0.000000 -11.949300 -0.266609 -2.383220 12.994200 -0.242716 4.980390 -94.132200 9.506510 -66.373900 5.348090 -0.000007 -0.000001 -37.382400 -23.890100 20.497200 24.328600 0.000019 0.000005 1.621010 18.786700 -5.021810 22.291600 -0.000001 0.000005 17.865800 4.524070 16.196600 12.994500 -0.242716 -4.980390 88.953000 3.165540 -71.687200 -5.348130 -0.000001 -0.000004 -62.805400 19.784600 -27.705600 -24.328900 0.000322 -0.000009 -3.882050 -3.392760 -48.899000 -22.291500 -0.000108 -0.000004 5.774080 5.443280 -4.398810 -2.192480 -6.469440 -0.000000 -179.883000 -7.516370 -28.668400 39.081100 -0.000007 -0.000012 -0.013121 0.043992 16.606900 40.985400 -0.000006 -0.000013 -8.344420 12.013000 -55.964300 11.754300 -0.000000 0.000003 0.002371 0.065650 -13.914100 -2.192510 6.469440 -0.000001 174.970000 12.258800 -170.848000 -39.081100 -0.002282 -0.040193 -0.037160 0.092780 23.569100 -40.985400 0.000008 0.000006 -8.098090 10.710900 -61.604200 -11.754300 -0.000006 -0.000006 -0.059320 -0.329557 -30.180500
0.000000 0.000000 0.000000 0.000000 0.000000 -0.000000 194.846000 89.818400 -132.097000 89.813300 -1.825890 -4.551840 15.735700 0.000005 -0.000001 128.122000 85.757200 -127.455000 8.984550 -0.406207 -0.000000 -1.120690 5.185700 1.385210 16.377300 -0.000001 -0.000001 -0.821436 2.353460 -0.203366 6.456720 -0.000001 -0.000000 -12.845000 0.486919 -1.470440 12.994200 -0.242716 4.980390 -94.293500 10.094900 -66.813400 5.348090 -0.000007 -0.000001 -41.095900 -22.943400 18.557400 24.328600 0.000019 0.000005 1.722440 18.891100 -5.306150 22.291600 -0.000001 0.000005 15.717000 4.600970 14.890400 12.994500 -0.242716 -4.980390 88.727100 3.807930 -71.501200 -5.348130 -0.000001 -0.000004 -64.150000 19.199400 -23.382500 -24.328900 0.000322 -0.000009 -3.952980 -3.573080 -47.943500 -22.291500 -0.000108 -0.000004 5.967870 5.470290 -5.382600 -2.192480 -6.469440 -0.000000 179.223000 -5.116630 -32.998900 39.081100 -0.000007 -0.000012 0.022746 -0.043640 27.528900 40.985400 -0.000006 -0.000013 -2.250690 10.683600 -57.334700 11.754300 -0.000000 0.000003 0.002282 0.107900 -12.201200 -2.192510 6.469440 -0.000001 174.266000 9.803050 -171.425000 -39.081100 -0.002282 -0.040193 -0.010470 0.026930 27.095900 -40.985400 0.000008 0.000006 -8.856950 8.865850 -59.095100 -11.754300 -0.000006 -0.000006 -0.120154 -0.492035 -37.218500
0.000000 0.000000 0.000000 0.000000 0.000000 -0.000000 195.420000 89.150400 -126.979000 90.825800 -1.172070 -4.080050 15.735700 0.000005 -0.000001 122.843000 85.873800 -122.673000 8.984550 -0.406207 -0.000000 -0.839007 4.461890 0.371202 16.377300 -0.000001 -0.000001 -1.559980 2.157820 0.386969 6.456720 -0.000001 -0.000000 -12.946400 0.507729 0.077747 12.994200 -0.242716 4.980390 -94.141900 10.035200 -67.433500 5.348090 -0.000007 -0.000001 -46.833600 -20.459000 14.820000 24.328600 0.000019 0.000005 1.888590 20.266500 -5.437900 22.291600 -0.000001 0.000005 10.610700 4.653960 13.959500 12.994500 -0.242716 -4.980390 88.651700 3.970640 -71.227400 -5.348130 -0.000001 -0.000004 -66.399100 18.282600 -17.842000 -24.328900 0.000322 -0.000009 -3.061230 -3.160470 -44.109400 -22.291500 -0.000108 -0.000004 5.318760 5.466300 -5.226920 -2.192480 -6.469440 -0.000000 179.031000 -1.802250 -33.417900 39.081100 -0.000007 -0.000012 0.059994 -0.083389 35.732500 40.985400 -0.000006 -0.000013 -3.175670 8.491920 -63.289000 11.754300 -0.000000 0.000003 0.001158 0.145102 -10.692300 -2.192510 6.469440 -0.000001 173.672000 7.283470 -171.645000 -39.081100 -0.002282 -0.040193 0.036356 -0.053453 31.734000 -40.985400 0.000008 0.000006 -8.473850 5.638810 -53.114000 -11.754300 -0.000006 -0.000006 -0.214689 -0.668963 -45.358300
